<svg xmlns="http://www.w3.org/2000/svg" width="83.139" height="82.137" viewBox="0 0 83.139 82.137"><g transform="translate(4.088) rotate(3)"><path d="M229.951,125.348c-1.375-.968-3.25-1.038-5.05-.972a87.935,87.935,0,0,0-.065-13.043,2.179,2.179,0,0,0-3.131-1.725,2.9,2.9,0,0,0-1.752-.418q-3.725.2-7.449.445c.127-3.159-.762-6.764-2.943-8.965-3.023-3.051-7.6-2.1-9.939,1.237a17.048,17.048,0,0,0-2.009,4.8,42.588,42.588,0,0,0-1.1,4.132q-4.277.362-8.549.762-1.839.172-3.677.352a11.158,11.158,0,0,0-2.183-8.877c-1.267-1.549-3.115-2.494-5.088-1.7-1.9.769-2.779,2.667-3.54,4.43a42.522,42.522,0,0,0-2.458,7.537c-2.229.249-4.458.5-6.682.786-1.07.138-2.2.229-3.342.341,0-.059.006-.117.01-.176.19-2.371-3.816-2.954-4.2-.568-.08.5-.194,1-.317,1.485-.184.052-.366.106-.545.165a2.726,2.726,0,0,0-.49,5.015c-.037.223-.076.446-.113.67-.424,2.544-.734,5.109-1.056,7.667q-.21,1.666-.393,3.333c-2.441.518-2.188,4-.494,4.972q-.3,3.373-.481,6.757a139.185,139.185,0,0,0,1.578,30.234,3.229,3.229,0,0,0,3.113,2.37q28.846-1.6,57.684-3.323a13.569,13.569,0,0,0,.216,1.7c.615,3.143,4.93,2.587,5.827,0a12.52,12.52,0,0,0,.511-2.1c.941-.058,1.882-.113,2.823-.171a3.644,3.644,0,0,0,3.562-3.562,3.594,3.594,0,0,0-3.562-3.562l-2.328.152.467-7.073c.341-5.169.708-10.338,1.017-15.51.239-4,.5-8.006.729-12.011l.5,0c1.7,0,3.427.127,4.893-.88A2.769,2.769,0,0,0,229.951,125.348Zm-24.806-20.017c.061-.351.162.021,0,0Zm-1.03,2.373a13.385,13.385,0,0,1,.547-1.608,7.7,7.7,0,0,0,.465-.7,5.428,5.428,0,0,1,.709,1.954c.218.893.335,1.807.5,2.71q-1.5.11-3.008.224C203.572,109.415,203.845,108.552,204.115,107.7Zm-25.2-.434a13.558,13.558,0,0,1,.413,2.011,28.613,28.613,0,0,0,.406,3.127q-1.219.125-2.437.255c.235-1.053.509-2.1.83-3.127Q178.479,108.391,178.91,107.27Zm.478-1.187c.129-.4.171-.041,0,0Zm-14.458,13.882q2.6-.277,5.189-.563c-.05.569-.095,1.155-.108,1.742a3.316,3.316,0,0,0-.04.674,3.024,3.024,0,0,0,.065.489,6.471,6.471,0,0,0,.674,2.584c1.023,1.933,3.518,3.154,5.474,1.727a3.276,3.276,0,0,0,.748-.764,4.179,4.179,0,0,0,.59-.379,5.535,5.535,0,0,0,1.984-2.947,3.73,3.73,0,0,0-1.341-3.951q5.047-.492,10.1-.928,3.262-.28,6.526-.53a3.931,3.931,0,0,0-.356,1.649c.008,2.772,2.569,4.391,5.068,4.575a2.953,2.953,0,0,0,1.984-.115,5.56,5.56,0,0,0,2.325-.8,3.855,3.855,0,0,0,1.592-4.362,4.208,4.208,0,0,0-1.056-1.638q7.8-.522,15.605-.937h.015c-.474,3-.758,6.029-1.041,9.055q-1.916.045-3.831.11-7.325.249-14.635.785c-9.915.727-19.78,1.915-29.6,3.5-2.7.434-5.377.935-8.056,1.462-.93.183-1.859.374-2.787.564q.072-.973.144-1.946c.183-2.41.417-4.816.567-7.228.026-.423.054-.845.081-1.267C162.211,120.344,163.608,120.106,164.931,119.965Zm-4.619,49.784c-.4-2.655-.687-5.329-.879-8.014,1.114,1.233,3.243,1.074,4.77,1.052a20.571,20.571,0,0,0,5.484-.733,2.883,2.883,0,0,0,2.062-3.159,2.841,2.841,0,0,0-2.827-2.5,51.231,51.231,0,0,0-5.446,1.016c-1.493.336-3.211.487-4.2,1.721-.262-5.213-.21-10.45-.009-15.634.094-2.433.229-4.866.387-7.3l.208-.03q2.323-.361,4.651-.692,4.563-.65,9.138-1.229c6.194-.792,12.408-1.407,18.629-1.943s12.468-.916,18.715-1.138c2.446-.087,4.893-.143,7.34-.182-.33,3.885-.609,7.776-.925,11.66-.428,5.267-.794,10.539-1.187,15.808q-.28,3.755-.56,7.51Q187.982,167.782,160.311,169.749Z" transform="translate(-152.102 -98.823)" fill="#fff"/><path d="M235.67,228.467c1.794-.283,2.789-2.525,2.347-4.134a3.433,3.433,0,0,0-4.134-2.348c-2.183.409-4.37.594-6.571.862a3.284,3.284,0,0,0-3.184,3.184,3.234,3.234,0,0,0,3.184,3.184A44.491,44.491,0,0,0,235.67,228.467Z" transform="translate(-202.536 -185.012)" fill="#fff"/><path d="M287.948,224.112c2.885-1.288,1.421-6.079-1.6-5.905-1.291.075-2.521.458-3.8.628a31.544,31.544,0,0,0-4.037.526c-2.059.551-2.748,3.838-.632,4.833A13.009,13.009,0,0,0,287.948,224.112Z" transform="translate(-239.273 -182.415)" fill="#fff"/><path d="M337.318,217.746c-1.348-1.434-3.08-1.26-4.878-1.209a37.68,37.68,0,0,0-4.6.3c-2.994.453-3,5.6,0,6.048a37.676,37.676,0,0,0,4.6.3c1.8.051,3.53.225,4.878-1.209A3.052,3.052,0,0,0,337.318,217.746Z" transform="translate(-273.582 -181.225)" fill="#fff"/><path d="M189.237,254.621c-1.732.231-3.456.534-5.171.871a17.663,17.663,0,0,0-4.91,1.37c-2.045,1.085-1.827,4.951.694,5.312a18.533,18.533,0,0,0,5.224-.311c1.678-.232,3.374-.487,5.03-.841a3.238,3.238,0,0,0,2.334-3.576C192.223,256.02,190.863,254.4,189.237,254.621Z" transform="translate(-170.077 -207.902)" fill="#fff"/><path d="M244.709,251.733c-2.4.252-4.776.651-7.158,1.024-3.529.553-2.742,6.66.851,6.289,2.4-.248,4.8-.478,7.181-.849C249.211,257.634,248.4,251.346,244.709,251.733Z" transform="translate(-210.339 -205.882)" fill="#fff"/><path d="M288.153,250.25c-1.522.209-2.451,2.078-2.246,3.441a3.141,3.141,0,0,0,3.08,2.719,35.053,35.053,0,0,0,4.933-.178c1.689-.223,3.357-1.344,3.271-3.27a3.329,3.329,0,0,0-3.271-3.27A41.1,41.1,0,0,0,288.153,250.25Z" transform="translate(-245.775 -204.464)" fill="#fff"/><path d="M333.852,248.964a37.63,37.63,0,0,0-6.858-.058c-3.929.111-3.936,6,0,6.108a37.635,37.635,0,0,0,6.858-.058C336.818,254.492,336.819,249.429,333.852,248.964Z" transform="translate(-272.5 -203.821)" fill="#fff"/><path d="M243.146,285.317a16.917,16.917,0,0,0-8.574.862c-3.969,1.314-2.341,6.951,1.711,6.206,2.252-.414,4.661-.43,6.863-1.011C246.058,290.6,246.218,286,243.146,285.317Z" transform="translate(-208.253 -229.236)" fill="#fff"/><path d="M286.569,283.721c-3.312.629-2.6,6.223.8,5.934,1.454-.124,2.918-.183,4.377-.207,1.705-.028,3.259-.041,4.534-1.345a2.6,2.6,0,0,0,0-3.577C294.2,281.99,289.336,283.2,286.569,283.721Z" transform="translate(-244.754 -227.768)" fill="#fff"/></g></svg>