<?xml version="1.0" encoding="UTF-8" standalone="no"?>
<svg
   xmlns:dc="http://purl.org/dc/elements/1.1/"
   xmlns:cc="http://creativecommons.org/ns#"
   xmlns:rdf="http://www.w3.org/1999/02/22-rdf-syntax-ns#"
   xmlns:svg="http://www.w3.org/2000/svg"
   xmlns="http://www.w3.org/2000/svg"
   height="308"
   width="308"
   xml:space="preserve"
   viewBox="0 0 308 308"
   y="0px"
   x="0px"
   id="Layer_1"
   version="1.1"><metadata
   id="metadata21">
  <rdf:RDF>
    <cc:Work
       rdf:about="">
      <dc:format>image/svg+xml</dc:format>
      <dc:type
         rdf:resource="http://purl.org/dc/dcmitype/StillImage" />
      <dc:title></dc:title>
    </cc:Work>
  </rdf:RDF>
</metadata>
<defs
   id="defs19" />

<style
   id="style10"
   type="text/css">
	.st0{fill:#B3B3B3;}
	.st1{fill:#333333;}
</style>

<path
   id="path12"
   d="m 164.5,164.5 h 122.4 v 50.7 H 185.6 v 21.1 h 101.3 v 50.6 H 164.5 Z M 164.5,36 272,143.5 H 164.5 Z M 21.1,21.1 H 143.5 V 143.5 H 21.1 Z m 158.4,0 H 287 V 128.6 Z M 0,0 V 164.5 H 143.5 V 286.9 H 21.1 V 185.6 H 0 V 308 H 308 V 0 Z"
   class="st0" />

<path
   style="fill:#ffffff"
   id="path14"
   d="m 286.9,128.5 v 0 L 182.5,24.1 158.4,0 h -14.9 v 21 29 93.5 H 21.1 V 50 21.1 L 0,0 V 0 164.5 H 143.5 V 286.9 308 H 308 V 149.6 Z M 164.5,36 272,143.5 H 164.5 Z M 286.9,286.9 H 164.5 v -50.6 h 122.4 z m 0,-71.7 H 164.5 v -50.7 h 122.4 z"
   class="st1" />

</svg>
