<svg height="86.157" viewBox="0 0 135 86.157" width="135" xmlns="http://www.w3.org/2000/svg"><path d="m108.22852-.00976563-.72071.41601563 2.98633 5.171875.01172.0214844.7207 1.2480468.03321.0585938.88476 1.53125.7207-.4160156-.64453-1.1171875-.0332-.0585938-.7207-1.2460937-.01172-.0214844zm-29.195317.00585938-.720703.41601563 2.986328 5.17187502.011719.0214844.720703 1.2460937.033203.0585937.884766 1.5332032.722656-.4160156-.646484-1.1171876-.033203-.0585937-.720704-1.2480469-.011718-.0214844zm36.578127 0-1.88867 3.25000005.71875.4179687 1.88867-3.25zm-29.193361.00585938-1.888672 3.24999997.71875.4179688 1.888672-3.25000002zm25.861331 4.00585937-.71875.4160156.66601 1.1542969.01172.0214844.7207 1.2480468.03321.0585938.88672 1.53125.7207-.4160156-.64649-1.1152344-.0332-.0585938-.7207-1.2480468-.01172-.0214844zm1.73047 0-.72071.4160156.66797 1.1542969.01563.0214844.71875 1.2480468.03515.0585938 3.19922 5.546875.7207-.416016-2.96289-5.130859-.0332-.0585938-.7207-1.2480468-.01172-.0214844zm-30.927739.0039063-.71875.4160156.666016 1.15625.013672.0195312.720703 1.2480469.035156.0585937.882813 1.5332032.720703-.4160156-.644532-1.1171876-.033203-.0585937-.720703-1.2480469-.013672-.0195312zm1.732422 0-.71875.4160156.666016 1.15625.015625.0195312.71875 1.2480469.035156.0585937 3.199219 5.5488278.720703-.416015-2.962891-5.1328128-.033203-.0585937-.720703-1.2480469-.011719-.0195312zm1.640625 1.5917968.722656 1.2480469h23.308596l-.71875-1.2480469zm-79.5390624.0039063v12.5449221l1.2460938-2.160156v-9.1347661h73.1249996l-.720703-1.25zm108.7324244 0 .7207 1.2480469h14.66992v39.2441402h1.24805v-39.2441402-1.2480469zm-33.128909 3.1835937-1.886719 3.2519534.71875.416015 1.888672-3.2519528zm29.195309.0058594-1.88867 3.25.71875.417969 1.88867-3.2519534zm-103.2890588 8.199219-2.1699218 3.880859h-3.8222656v.910156h3.3144531l-1.9238281 3.439453h-3.82617193v.91211h3.31640623l-1.8574219 3.316406.8007813.445313 2.1054687-3.761719h3.046875l-1.8554687 3.316406.7988281.445313 2.1054688-3.761719h3.8242186v-.91211h-3.3124999l1.9238279-3.439453h3.826172v-.910156h-3.316406l1.921875-3.433594-.800781-.447265-2.171875 3.880859h-3.0488285l1.921875-3.433594zm16.6425778.673828v10.921875h2.621094v-10.921875zm13.541016 0v10.923828h2.416016v-1.353516h.029297a2.811 2.811 0 0 0 2.609374 1.529297c2.257001 0 3.466797-1.865375 3.466797-4.109375 0-1.835-1.151046-3.828125-3.248047-3.828125a3.106 3.106 0 0 0 -2.609374 1.148438h-.029297v-4.308594zm24.480469 0v4.308594h-.029297a3.028 3.028 0 0 0 -2.611328-1.150391c-2.1 0-3.246094 1.966078-3.246094 3.830078 0 2.245 1.208797 4.109375 3.466797 4.109375a2.81 2.81 0 0 0 2.609375-1.529297h.029297v1.353516h2.414062v-10.921875zm7.304687 3.158203a7.84 7.84 0 0 0 -2.794922.541016l.044922 1.77539a4.921 4.921 0 0 1 2.417969-.568359c.947 0 1.719375.2775 1.734375 1.3125a7.709 7.709 0 0 0 -1.224609-.09961c-1.4 0-3.919922.27775-3.919922 2.59375 0 1.644001 1.340844 2.386719 2.839844 2.386719a2.6 2.6 0 0 0 2.40039-1.36914l.007813-.001953h.029297c0 .393.04264.786359.05664 1.193359h2.400391a9.3 9.3 0 0 1 -.146485-1.789063v-2.826172c0-2.318-1.672375-3.146484-3.609375-3.146484a7.84 7.84 0 0 0 -.236328-.001953zm-49.367187.001953a7.207 7.207 0 0 0 -.232422.001953c-1.517 0-3.234375.715891-3.234375 2.462891l.001953-.001953c0 2.74 3.730469 1.836187 3.730469 3.117187 0 .524-.527407.613282-1.066407.613282a6.483 6.483 0 0 1 -2.460937-.525391l-.146484 1.90625a8.556 8.556 0 0 0 2.751953.365234c1.72 0 3.539062-.510203 3.539062-2.533203 0-2.885-3.898437-1.951812-3.898437-3.132812 0-.423.639984-.525391 1.208984-.525391a4.271 4.271 0 0 1 2.039063.511719l.199218-1.820313a7.207 7.207 0 0 0 -2.43164-.439453zm12.205078 0c-2.51 0-4.41211 1.456563-4.41211 3.976563h.007813c0 2.507 1.907109 3.96289 4.412109 3.96289s4.414063-1.45589 4.414063-3.96289-1.911875-3.976563-4.421875-3.976563zm18.929687.001953c-2.505 0-4.410156 1.45461-4.410156 3.97461s1.905156 3.96289 4.410156 3.96289 4.41211-1.45589 4.41211-3.96289-1.90711-3.97461-4.41211-3.97461zm-45.3671871.955078h3.046875l-1.9238281 3.439453h-3.0488282zm45.3671871.875c1.206 0 1.707032 1.005578 1.707032 2.142579 0 1.137-.501032 2.126953-1.707032 2.126953-1.211 0-1.705078-.998953-1.705078-2.126953 0-1.128001.499078-2.142579 1.705078-2.142579zm-18.921875.001953c1.21 0 1.707032 1.000579 1.707032 2.142579s-.501032 2.128906-1.707032 2.128906-1.699218-1.000906-1.699218-2.128906.499218-2.142579 1.699218-2.142579zm28.263672.173829c.961 0 1.59961.829468 1.59961 1.980468a1.779 1.779 0 0 1 -1.59961 1.939453c-.992 0-1.589844-.831015-1.589844-2.041015a1.68 1.68 0 0 1 1.589844-1.878906zm-18.671875.001953a1.681 1.681 0 0 1 1.589844 1.878906c0 1.211-.600844 2.041016-1.589844 2.041016a1.779 1.779 0 0 1 -1.599609-1.939454c0-1.137.642609-1.980468 1.599609-1.980468zm27.859375 2.34375c.393 0 .772422.029922 1.107422.044922a1.71 1.71 0 0 1 -1.617187 1.792968v-.005859c-.613 0-1.080079-.306031-1.080079-.832031 0-.728.700844-1 1.589844-1zm-62.5292966 3.046875-1.2480469 2.162109v36.59961h15.9804685l-.720703-1.261719h-14.0117186zm36.4121096 2.162109v1.921875h2.621093v-1.921875zm-17.056641.007813v1.921875h2.621094v-1.921875zm24.533203 2.966797a3.764 3.764 0 0 0 -3.736328 3.974609c0 2.505 1.90711 3.974609 4.412109 3.974609a7.594 7.594 0 0 0 2.78125-.480468v-1.84961a4.9 4.9 0 0 1 -2.316406.582031c-1.282 0-2.083515-.407031-2.228515-1.457031h5.242187v-.480469c0-2.258-1.018125-4.251953-3.828125-4.251953a3.764 3.764 0 0 0 -.326172-.011718zm-29.240234.005859a2.878 2.878 0 0 0 -2.484375 1.578125h-.029297v-1.400391h-2.386719v7.587891h2.623047v-3.199219c0-1.632.552859-2.375 1.630859-2.375.715001 0 1.208985.480203 1.208985 1.908203v3.671875h2.621094v-4.738281a2.748 2.748 0 0 0 -2.898438-3.027344 2.878 2.878 0 0 0 -.285156-.005859zm12.199219.001953a3.764 3.764 0 0 0 -3.736328 3.974609c0 2.505 1.907062 3.97461 4.414062 3.97461a7.591 7.591 0 0 0 2.78125-.480469v-1.849609a4.9 4.9 0 0 1 -2.316406.582031c-1.283 0-2.082516-.407031-2.228516-1.457031h5.244141v-.480469c0-2.258-1.021032-4.251953-3.832031-4.251953a3.764 3.764 0 0 0 -.326172-.011719zm-7.492188.185547v7.589844h2.623047v-7.589844zm17.054688 0v7.589844c0 .728-.058047 1.486328-.873047 1.486328a2.411 2.411 0 0 1 -.552735-.044922l-.058593 1.662109a6.685 6.685 0 0 0 1.470703.13086c2.025 0 2.634765-1.26911 2.634765-3.16211l.001953-.007812v-7.654297zm7.917968 1.478515a1.392 1.392 0 0 1 1.359375 1.591797h-2.916015c.058-.874.510031-1.58789 1.457031-1.58789a1.392 1.392 0 0 1 .099609-.003907zm-17.041015.003907a1.391 1.391 0 0 1 1.359375 1.591797h-2.914063c.058-.874.510031-1.587891 1.457031-1.587891a1.391 1.391 0 0 1 .097657-.003906zm83.083981 7.714843-.5 2.50586h1.28125l.77539-2.50586zm-39.449216.175782v1.919922h2.619141v-1.919922zm38.212896.662109-2.57618.800781v1.699219h-1.54492v1.835938h1.5v3.089843c0 1.806.56811 2.837891 2.91211 2.837891a12.522 12.522 0 0 0 1.64453-.144531l-.08594-1.697266a5.043 5.043 0 0 1 -.80078.09961c-.83 0-1.04882-.464813-1.04882-1.382813v-2.800781h1.83593v-1.832032h-1.83593zm1.93554 10.119141v.003906l.00196-.003906a12.522 12.522 0 0 1 -.00196 0zm-45.460936-7.808594a3.763 3.763 0 0 0 -3.736328 3.972656c0 2.507 1.90711 3.97461 4.41211 3.97461a7.6 7.6 0 0 0 2.78125-.480469v-1.841797a4.908 4.908 0 0 1 -2.314454.582031c-1.282999 0-2.084468-.408984-2.230468-1.458984h5.24414l.001954-.484375c0-2.258-1.021032-4.251953-3.832032-4.251953a3.763 3.763 0 0 0 -.326172-.011719zm-35.277343.005859a2.879 2.879 0 0 0 -2.626953 1.578125h-.027344v-1.40039h-2.388672v7.58789h2.621094v-3.201172c0-1.630999.553328-2.373046 1.486328-2.373046.744 0 1.048828.64 1.048828 1.5v4.078125h2.621094v-3.201172c0-1.631.553328-2.373047 1.486328-2.373047.744 0 1.050781.64 1.050781 1.5v4.078125l2.623047-.003906v-4.472657c0-2.054-.498734-3.289062-2.677734-3.289062a3.007 3.007 0 0 0 -2.701172 1.453125 2.388 2.388 0 0 0 -2.373047-1.453125 2.879 2.879 0 0 0 -.142578-.007813zm-17.464844.003907a7.208 7.208 0 0 0 -.230469.003906c-1.516 0-3.234375.713937-3.234375 2.460937 0 2.739 3.728516 1.836188 3.728516 3.117188 0 .524-.525453.611328-1.064453.611328a6.481 6.481 0 0 1 -2.460938-.525391l-.146484 1.90625a8.564 8.564 0 0 0 2.751953.365235c1.72 0 3.541015-.510203 3.541015-2.533203 0-2.885-3.90039-1.951813-3.90039-3.132813 0-.423.641937-.525391 1.210937-.525391a4.277 4.277 0 0 1 2.03711.511719l.201172-1.820312a7.208 7.208 0 0 0 -2.433594-.439453zm67.226562 0a2.879 2.879 0 0 0 -2.625 1.578125h-.029297v-1.398438h-2.386718v7.587891h2.617187l.003907-3.207032c0-1.630999.553328-2.375 1.486328-2.375.744 0 1.050781.641001 1.050781 1.5v4.080079h2.619141v-3.201172c0-1.631.555281-2.373047 1.488281-2.373047.744 0 1.048828.641 1.048828 1.5v4.078125h2.621094v-4.470703c0-2.054-.493735-3.291016-2.677735-3.291016a3.008 3.008 0 0 0 -2.701172 1.455078 2.389 2.389 0 0 0 -2.373046-1.455078 2.879 2.879 0 0 0 -.142579-.007812zm-60.009765.003906a7.837 7.837 0 0 0 -2.794922.541016l.042969 1.77539a4.936 4.936 0 0 1 2.417968-.568359c.947 0 1.721328.2775 1.736329 1.3125a7.723 7.723 0 0 0 -1.22461-.09961c-1.4 0-3.917969.276797-3.917969 2.591797 0 1.645 1.338891 2.386719 2.837891 2.386719h.001953a2.6 2.6 0 0 0 2.40625-1.369141h.027344c0 .393.045547.78536.060547 1.19336h2.398437a9.265 9.265 0 0 1 -.144531-1.789063v-2.826172c0-2.317-1.674328-3.146484-3.611328-3.146484a7.837 7.837 0 0 0 -.236328-.001953zm81.767576 0a7.212 7.212 0 0 0 -.23242.001953c-1.514 0-3.23242.713938-3.23242 2.460937 0 2.739 3.72851 1.838141 3.72851 3.119141 0 .524-.52545.611328-1.06445.611328v-.001953a6.473 6.473 0 0 1 -2.45898-.523437l-.14649 1.90625a8.557 8.557 0 0 0 2.75196.363281c1.71899 0 3.5371-.510203 3.5371-2.533203 0-2.885-3.90039-1.951813-3.90039-3.132813 0-.423.64389-.523437 1.21289-.523437a4.28 4.28 0 0 1 2.03711.509765l.20118-1.818359a7.212 7.212 0 0 0 -2.4336-.439453zm-8.47656.001953c-2.505001 0-4.41211 1.454609-4.41211 3.974609 0 2.507 1.907109 3.962891 4.41211 3.962891 2.505 0 4.41211-1.455891 4.41211-3.962891s-1.90711-3.974609-4.41211-3.974609zm-49.761719.001953c-2.505 0-4.41211 1.45461-4.41211 3.97461 0 2.519999 1.90711 3.960937 4.41211 3.960937s4.412109-1.453937 4.412109-3.960937c0-2.52-1.907109-3.97461-4.412109-3.97461zm17.123047.003906a2.342 2.342 0 0 0 -2.242188 1.572266h-.029297v-1.400391l-2.386719-.001953v7.587891h2.619141v-3.199219c0-1.486.684203-2.375 1.908203-2.375a3.021 3.021 0 0 1 .888672.087891l.130859-2.183594a5.53 5.53 0 0 0 -.888671-.087891zm-12.152344.16211v1.921875h3.394531l-3.466797 3.568359v2.101563h6.523438v-1.921875h-3.523438l3.464844-3.570313v-2.099609zm22.335937.001953v7.589844c0 .728-.058047 1.486328-.873047 1.486328a2.41 2.41 0 0 1 -.552734-.044922l-.058594 1.660156a6.652 6.652 0 0 0 1.470703.130859c2.025 0 2.636719-1.266156 2.636719-3.160156h.001953v-7.662109zm-4.86914 1.486328a1.391 1.391 0 0 1 1.357421 1.591797h-2.914062c.059-.876.510031-1.589844 1.457031-1.589844a1.391 1.391 0 0 1 .09961-.001953zm27.324219.177734c1.21 0 1.70508.999625 1.70508 2.140625 0 1.123-.49908 2.128907-1.70508 2.128907s-1.705079-1.000907-1.705079-2.128907.495079-2.140625 1.705079-2.140625zm-49.761719.001953c1.206 0 1.705078.999625 1.705078 2.140626 0 1.141-.499078 2.126953-1.705078 2.126953s-1.707032-.998954-1.707032-2.126953c0-1.137001.501032-2.140626 1.707032-2.140626zm-23.230469 2.517579c.394 0 .774375.029922 1.109375.044921a1.711 1.711 0 0 1 -1.619141 1.792969c-.612 0-1.078125-.306031-1.078125-.832031 0-.728.699891-1.005859 1.587891-1.005859zm-.523438 9.853515-1.886718 3.25.71875.417969 1.886718-3.25zm-7.388672.001953-.720703.416016 2.986329 5.171875.011718.019531.720703 1.248047.033203.058594.884766 1.533203.720703-.416016-.644531-1.117187-.029297-.066406-.720703-1.248047-.011719-.019531zm4.056641 4.007813-.720703.416016.667969 1.15625.011719.019531.720703 1.248047.033203.058593.884765 1.533203.722657-.416015-.646485-1.117188-.035156-.058593-.71875-1.248047-.011719-.019531zm1.732422 0-.720703.416016.666016 1.15625.013671.019531.71875 1.248047.035157.058593 3.199218 5.548829.720704-.416016-2.962891-5.134766-.029297-.05664-.720703-1.248047-.011719-.019531zm1.638672 1.591797.720703 1.248047h9.824219v-1.248047zm94.386723.02539c-4.909 0-8.17969 3.525391-8.17969 8.400391a8.169 8.169 0 1 0 16.33008 0c0-4.877-3.27339-8.400391-8.15039-8.400391zm.00195 2.390625c3.147 0 5 2.956766 5 6.009766 0 2.863-1.542 6.011719-5 6.011719-3.493 0-5.03516-3.148719-5.03516-6.011719 0-3.052 1.85716-6.009766 5.03516-6.009766zm-98.320314.773438-1.888672 3.25.720704.417969 1.886718-3.251953zm70.726563 2.798828v1.759766h-.011719a1.094 1.094 0 0 0 -.917969-.427735c-.943 0-1.289062.75161-1.289062 1.59961s.346062 1.617187 1.289062 1.617187a1.141 1.141 0 0 0 .941407-.417969h.013671v.345703h.775391v-4.476562zm7.429691.082031v.763672h.80078v-.763672zm-19.714848.03125-.5.871094h.5l.81836-.871094zm-12.283203.003907-.5.86914h.5l.81836-.86914zm27.56836 0-.5.86914h.5l.818359-.86914zm-31.835938.195312v4.166016h.835938v-1.826172h1.408203v-.65625h-1.408203v-1.025391h1.480469v-.658203zm16.316407 1.009766a2.757 2.757 0 0 0 -1.06836.232422l.027344.693359a1.608 1.608 0 0 1 .949219-.333985c.471 0 .691406.16711.691406.66211h-.441406a2.436 2.436 0 0 0 -1.03125.177734.9.9 0 0 0 -.525391.876953.98.98 0 0 0 1.074219.914063 1.1 1.1 0 0 0 .949219-.53125h.011718a3.773 3.773 0 0 0 .03711.458984h.699218c-.018-.239-.029156-.452547-.035156-.685547s-.013672-.461484-.013672-.771484v-.392578c0-.908-.387219-1.300781-1.324218-1.300781zm8.4375.001953a2.753 2.753 0 0 0 -1.06836.232422l.035156.693359a1.609 1.609 0 0 1 .949219-.333984c.472 0 .691406.167109.691406.662109h-.447265a2.437 2.437 0 0 0 -1.033203.177734.9.9 0 0 0 -.523438.876953.98.98 0 0 0 1.072266.914063 1.1 1.1 0 0 0 .949219-.53125h.011718a3.614 3.614 0 0 0 .03711.458984h.699218c-.018-.239-.029156-.452546-.035156-.685547-.006-.233-.011719-.461484-.011719-.771484v-.392578c0-.908-.389172-1.300781-1.326171-1.300781zm6.845703.001953a2.755 2.755 0 0 0 -1.066407.232422l.027344.691406a1.61 1.61 0 0 1 .949219-.333984c.471 0 .691406.167109.691406.662109h-.441406a2.439 2.439 0 0 0 -1.033203.179687.9.9 0 0 0 -.523438.876954.98.98 0 0 0 1.074219.912109 1.1 1.1 0 0 0 .947266-.53125h.013671a3.78 3.78 0 0 0 .035157.460937h.699219c-.018001-.238999-.029157-.454499-.035157-.6875-.006-.233-.011719-.459531-.011719-.769531v-.394531c0-.908-.389171-1.298828-1.326171-1.298828zm7.449219.001953a2.753 2.753 0 0 0 -1.06836.232422l.02734.693359a1.61 1.61 0 0 1 .94922-.333984c.472 0 .69336.167109.69336.662109h-.44336a2.437 2.437 0 0 0 -1.03125.177735.9.9 0 0 0 -.52539.876953.98.98 0 0 0 1.07422.914062 1.1 1.1 0 0 0 .94922-.53125h.01172a3.773 3.773 0 0 0 .03515.458985h.70118c-.018-.239-.03111-.452547-.03711-.685547s-.01172-.461485-.01172-.771485v-.392578c0-.908-.38722-1.300781-1.32422-1.300781zm-31.345704.003906a.879.879 0 0 0 -.009765.001953.941.941 0 0 0 -.841797.769532h-.011719v-.701172h-.708984v3.076172h.798828v-1.128907c0-.441.00039-1.251953.65039-1.251953a.813.813 0 0 1 .357422.066406v-.80664a.879.879 0 0 0 -.234375-.025391zm13.955078 0a1.149 1.149 0 0 0 -.919922.492188h-.011718v-.419922h-.757813l.003907 3.070312h.800781v-1.5c0-.394.124219-1.019531.699219-1.019531.513 0 .519531.506813.519531.882813v1.640625h.798828v-1.9375c0-.693-.315969-1.207032-1.042969-1.207032a1.149 1.149 0 0 0 -.089844-.001953zm-17.574218.001953a1.438 1.438 0 0 0 -1.427735 1.623047 1.46 1.46 0 0 0 1.605469 1.591797 2.112 2.112 0 0 0 1.056641-.24414l.001953-.650391a2.074 2.074 0 0 1 -1.021485.310547.8.8 0 0 1 -.876953-.775391h2.123047c0-1.074-.320937-1.855469-1.460937-1.855469zm30.863284.001954a1.612 1.612 0 0 0 .02929 3.216796 2.593 2.593 0 0 0 .80079-.099609l-.03711-.662109a1.692 1.692 0 0 1 -.61524.142578c-.561 0-.83008-.435-.83008-1s.3175-.972656.8125-.972656a1.209 1.209 0 0 1 .54297.113281l.07227-.638672a2.607 2.607 0 0 0 -.77539-.099609zm-25.300784.017578a1.6085 1.6085 0 0 0 -1.576172 1.609375 1.6085 1.6085 0 0 0 3.216797 0 1.6085 1.6085 0 0 0 -1.640625-1.609375zm1.867187.044922 1.142578 3.074218h.898438l1.134765-3.074218h-.800781l-.738281 2.238281h-.013672l-.763672-2.238281zm24.751957.005859v3.074219h.80078v-3.074219zm-32.142582.513672a.7.7 0 0 1 .00586 0c.448 0 .628343.334656.652343.722656h-1.361328a.7.7 0 0 1 .703125-.722656zm5.53125.027343a.784.784 0 0 1 .798828.916016c0 .513-.162343 1.0625-.777344 1.0625-.615 0-.769531-.5555-.769531-1.0625h.001953a.784.784 0 0 1 .746094-.916016zm18.460938.00586c.519 0 .714843.548515.714843.978516 0 .43-.172218 1-.699218 1s-.673829-.573-.673829-1h-.003906c0-.412.14311-.978516.66211-.978516zm-11.544922 1.101562h.345703a1.019 1.019 0 0 1 -.166016.632813.678.678 0 0 1 -.5625.275391c-.286 0-.505859-.113954-.505859-.376954 0-.471.530672-.53125.888672-.53125zm8.445312.001954h.345703a1.022 1.022 0 0 1 -.166015.632812.679.679 0 0 1 -.5625.275391c-.286 0-.50586-.113954-.50586-.376953 0-.471001.530672-.53125.888672-.53125zm6.839844.001953h.345703a1.019 1.019 0 0 1 -.166015.632812.679.679 0 0 1 -.5625.273438c-.286001 0-.50586-.112-.50586-.375 0-.471.530672-.53125.888672-.53125zm7.44727.001953h.3457a1.022 1.022 0 0 1 -.16602.632812.679.679 0 0 1 -.5625.275391c-.286 0-.50586-.113953-.50586-.376953 0-.471.53068-.53125.88868-.53125zm27.42382 4.130859a1.957 1.957 0 0 0 -.19726.019531 4.739 4.739 0 0 0 -2.10938.507813l.11328 1.181641a3.082 3.082 0 0 1 1.63868-.570313c.581 0 1.16015.306984 1.16015.958984 0 1.3-2.41322 3.318985-3.07422 3.958985v1.189453l4.72266.001953v-1.121094h-2.90039c1.161-1.141 2.67773-2.524297 2.67773-4.029297a1.957 1.957 0 0 0 -2.03125-2.097656z" fill="#fff"/></svg>