<?xml version="1.0" encoding="UTF-8" standalone="no"?>
<svg xmlns="http://www.w3.org/2000/svg" viewBox="0 0 135 86.157" height="86.157" width="135">
   <path d="M 108.22852 -0.009765625 L 107.50781 0.40625 L 110.49414 5.578125 L 110.50586 5.5996094 L 111.22656 6.8476562 L 111.25977 6.90625 L 112.14453 8.4375 L 112.86523 8.0214844 L 112.2207 6.9042969 L 112.1875 6.8457031 L 111.4668 5.5996094 L 111.45508 5.578125 L 108.22852 -0.009765625 z M 79.033203 -0.00390625 L 78.3125 0.41210938 L 81.298828 5.5839844 L 81.310547 5.6054688 L 82.03125 6.8515625 L 82.064453 6.9101562 L 82.949219 8.4433594 L 83.671875 8.0273438 L 83.025391 6.9101562 L 82.992188 6.8515625 L 82.271484 5.6035156 L 82.259766 5.5820312 L 79.033203 -0.00390625 z M 115.61133 -0.00390625 L 113.72266 3.2460938 L 114.44141 3.6640625 L 116.33008 0.4140625 L 115.61133 -0.00390625 z M 86.417969 0.001953125 L 84.529297 3.2519531 L 85.248047 3.6699219 L 87.136719 0.41992188 L 86.417969 0.001953125 z M 112.2793 4.0078125 L 111.56055 4.4238281 L 112.22656 5.578125 L 112.23828 5.5996094 L 112.95898 6.8476562 L 112.99219 6.90625 L 113.87891 8.4375 L 114.59961 8.0214844 L 113.95312 6.90625 L 113.91992 6.8476562 L 113.19922 5.5996094 L 113.1875 5.578125 L 112.2793 4.0078125 z M 114.00977 4.0078125 L 113.28906 4.4238281 L 113.95703 5.578125 L 113.97266 5.5996094 L 114.69141 6.8476562 L 114.72656 6.90625 L 117.92578 12.453125 L 118.64648 12.037109 L 115.68359 6.90625 L 115.65039 6.8476562 L 114.92969 5.5996094 L 114.91797 5.578125 L 114.00977 4.0078125 z M 83.082031 4.0117188 L 82.363281 4.4277344 L 83.029297 5.5839844 L 83.042969 5.6035156 L 83.763672 6.8515625 L 83.798828 6.9101562 L 84.681641 8.4433594 L 85.402344 8.0273438 L 84.757812 6.9101562 L 84.724609 6.8515625 L 84.003906 5.6035156 L 83.990234 5.5839844 L 83.082031 4.0117188 z M 84.814453 4.0117188 L 84.095703 4.4277344 L 84.761719 5.5839844 L 84.777344 5.6035156 L 85.496094 6.8515625 L 85.53125 6.9101562 L 88.730469 12.458984 L 89.451172 12.042969 L 86.488281 6.9101562 L 86.455078 6.8515625 L 85.734375 5.6035156 L 85.722656 5.5839844 L 84.814453 4.0117188 z M 86.455078 5.6035156 L 87.177734 6.8515625 L 110.48633 6.8515625 L 109.76758 5.6035156 L 86.455078 5.6035156 z M 6.9160156 5.6074219 L 6.9160156 18.152344 L 8.1621094 15.992188 L 8.1621094 6.8574219 L 81.287109 6.8574219 L 80.566406 5.6074219 L 6.9160156 5.6074219 z M 115.64844 5.6074219 L 116.36914 6.8554688 L 131.03906 6.8554688 L 131.03906 46.099609 L 132.28711 46.099609 L 132.28711 6.8554688 L 132.28711 5.6074219 L 115.64844 5.6074219 z M 82.519531 8.7910156 L 80.632812 12.042969 L 81.351562 12.458984 L 83.240234 9.2070312 L 82.519531 8.7910156 z M 111.71484 8.796875 L 109.82617 12.046875 L 110.54492 12.464844 L 112.43359 9.2128906 L 111.71484 8.796875 z M 8.4257812 16.996094 L 6.2558594 20.876953 L 2.4335938 20.876953 L 2.4335938 21.787109 L 5.7480469 21.787109 L 3.8242188 25.226562 L -0.001953125 25.226562 L -0.001953125 26.138672 L 3.3144531 26.138672 L 1.4570312 29.455078 L 2.2578125 29.900391 L 4.3632812 26.138672 L 7.4101562 26.138672 L 5.5546875 29.455078 L 6.3535156 29.900391 L 8.4589844 26.138672 L 12.283203 26.138672 L 12.283203 25.226562 L 8.9707031 25.226562 L 10.894531 21.787109 L 14.720703 21.787109 L 14.720703 20.876953 L 11.404297 20.876953 L 13.326172 17.443359 L 12.525391 16.996094 L 10.353516 20.876953 L 7.3046875 20.876953 L 9.2265625 17.443359 L 8.4257812 16.996094 z M 25.068359 17.669922 L 25.068359 28.591797 L 27.689453 28.591797 L 27.689453 17.669922 L 25.068359 17.669922 z M 38.609375 17.669922 L 38.609375 28.59375 L 41.025391 28.59375 L 41.025391 27.240234 L 41.054688 27.240234 A 2.811 2.811 0 0 0 43.664062 28.769531 C 45.921063 28.769531 47.130859 26.904156 47.130859 24.660156 C 47.130859 22.825156 45.979813 20.832031 43.882812 20.832031 A 3.106 3.106 0 0 0 41.273438 21.980469 L 41.244141 21.980469 L 41.244141 17.671875 L 38.609375 17.669922 z M 63.089844 17.669922 L 63.089844 21.978516 L 63.060547 21.978516 A 3.028 3.028 0 0 0 60.449219 20.828125 C 58.349219 20.828125 57.203125 22.794203 57.203125 24.658203 C 57.203125 26.903203 58.411922 28.767578 60.669922 28.767578 A 2.81 2.81 0 0 0 63.279297 27.238281 L 63.308594 27.238281 L 63.308594 28.591797 L 65.722656 28.591797 L 65.722656 17.669922 L 63.089844 17.669922 z M 70.394531 20.828125 A 7.84 7.84 0 0 0 67.599609 21.369141 L 67.644531 23.144531 A 4.921 4.921 0 0 1 70.0625 22.576172 C 71.0095 22.576172 71.781875 22.853672 71.796875 23.888672 A 7.709 7.709 0 0 0 70.572266 23.789062 C 69.172266 23.789062 66.652344 24.066812 66.652344 26.382812 C 66.652344 28.026813 67.993188 28.769531 69.492188 28.769531 A 2.6 2.6 0 0 0 71.892578 27.400391 L 71.900391 27.398438 L 71.929688 27.398438 C 71.929688 27.791438 71.972328 28.184797 71.986328 28.591797 L 74.386719 28.591797 A 9.3 9.3 0 0 1 74.240234 26.802734 L 74.240234 23.976562 C 74.240234 21.658562 72.567859 20.830078 70.630859 20.830078 A 7.84 7.84 0 0 0 70.394531 20.828125 z M 21.027344 20.830078 A 7.207 7.207 0 0 0 20.794922 20.832031 C 19.277922 20.832031 17.560547 21.547922 17.560547 23.294922 L 17.5625 23.292969 C 17.5625 26.032969 21.292969 25.129156 21.292969 26.410156 C 21.292969 26.934156 20.765562 27.023438 20.226562 27.023438 A 6.483 6.483 0 0 1 17.765625 26.498047 L 17.619141 28.404297 A 8.556 8.556 0 0 0 20.371094 28.769531 C 22.091094 28.769531 23.910156 28.259328 23.910156 26.236328 C 23.910156 23.351328 20.011719 24.284516 20.011719 23.103516 C 20.011719 22.680516 20.651703 22.578125 21.220703 22.578125 A 4.271 4.271 0 0 1 23.259766 23.089844 L 23.458984 21.269531 A 7.207 7.207 0 0 0 21.027344 20.830078 z M 33.232422 20.830078 C 30.722422 20.830078 28.820312 22.286641 28.820312 24.806641 L 28.828125 24.806641 C 28.828125 27.313641 30.735234 28.769531 33.240234 28.769531 C 35.745234 28.769531 37.654297 27.313641 37.654297 24.806641 C 37.654297 22.299641 35.742422 20.830078 33.232422 20.830078 z M 52.162109 20.832031 C 49.657109 20.832031 47.751953 22.286641 47.751953 24.806641 C 47.751953 27.326641 49.657109 28.769531 52.162109 28.769531 C 54.667109 28.769531 56.574219 27.313641 56.574219 24.806641 C 56.574219 22.299641 54.667109 20.832031 52.162109 20.832031 z M 6.7949219 21.787109 L 9.8417969 21.787109 L 7.9179688 25.226562 L 4.8691406 25.226562 L 6.7949219 21.787109 z M 52.162109 22.662109 C 53.368109 22.662109 53.869141 23.667687 53.869141 24.804688 C 53.869141 25.941688 53.368109 26.931641 52.162109 26.931641 C 50.951109 26.931641 50.457031 25.932688 50.457031 24.804688 C 50.457031 23.676687 50.956109 22.662109 52.162109 22.662109 z M 33.240234 22.664062 C 34.450234 22.664062 34.947266 23.664641 34.947266 24.806641 C 34.947266 25.948641 34.446234 26.935547 33.240234 26.935547 C 32.034234 26.935547 31.541016 25.934641 31.541016 24.806641 C 31.541016 23.678641 32.040234 22.664062 33.240234 22.664062 z M 61.503906 22.837891 C 62.464906 22.837891 63.103516 23.667359 63.103516 24.818359 A 1.779 1.779 0 0 1 61.503906 26.757812 C 60.511906 26.757812 59.914062 25.926797 59.914062 24.716797 A 1.68 1.68 0 0 1 61.503906 22.837891 z M 42.832031 22.839844 A 1.681 1.681 0 0 1 44.421875 24.71875 C 44.421875 25.92975 43.821031 26.759766 42.832031 26.759766 A 1.779 1.779 0 0 1 41.232422 24.820312 C 41.232422 23.683312 41.875031 22.839844 42.832031 22.839844 z M 70.691406 25.183594 C 71.084406 25.183594 71.463828 25.213516 71.798828 25.228516 A 1.71 1.71 0 0 1 70.181641 27.021484 L 70.181641 27.015625 C 69.568641 27.015625 69.101562 26.709594 69.101562 26.183594 C 69.101562 25.455594 69.802406 25.183594 70.691406 25.183594 z M 8.1621094 28.230469 L 6.9140625 30.392578 L 6.9140625 66.992188 L 22.894531 66.992188 L 22.173828 65.730469 L 8.1621094 65.730469 L 8.1621094 28.230469 z M 44.574219 30.392578 L 44.574219 32.314453 L 47.195312 32.314453 L 47.195312 30.392578 L 44.574219 30.392578 z M 27.517578 30.400391 L 27.517578 32.322266 L 30.138672 32.322266 L 30.138672 30.400391 L 27.517578 30.400391 z M 52.050781 33.367188 A 3.764 3.764 0 0 0 48.314453 37.341797 C 48.314453 39.846797 50.221563 41.316406 52.726562 41.316406 A 7.594 7.594 0 0 0 55.507812 40.835938 L 55.507812 38.986328 A 4.9 4.9 0 0 1 53.191406 39.568359 C 51.909406 39.568359 51.107891 39.161328 50.962891 38.111328 L 56.205078 38.111328 L 56.205078 37.630859 C 56.205078 35.372859 55.186953 33.378906 52.376953 33.378906 A 3.764 3.764 0 0 0 52.050781 33.367188 z M 22.810547 33.373047 A 2.878 2.878 0 0 0 20.326172 34.951172 L 20.296875 34.951172 L 20.296875 33.550781 L 17.910156 33.550781 L 17.910156 41.138672 L 20.533203 41.138672 L 20.533203 37.939453 C 20.533203 36.307453 21.086062 35.564453 22.164062 35.564453 C 22.879063 35.564453 23.373047 36.044656 23.373047 37.472656 L 23.373047 41.144531 L 25.994141 41.144531 L 25.994141 36.40625 A 2.748 2.748 0 0 0 23.095703 33.378906 A 2.878 2.878 0 0 0 22.810547 33.373047 z M 35.009766 33.375 A 3.764 3.764 0 0 0 31.273438 37.349609 C 31.273438 39.854609 33.1805 41.324219 35.6875 41.324219 A 7.591 7.591 0 0 0 38.46875 40.84375 L 38.46875 38.994141 A 4.9 4.9 0 0 1 36.152344 39.576172 C 34.869344 39.576172 34.069828 39.169141 33.923828 38.119141 L 39.167969 38.119141 L 39.167969 37.638672 C 39.167969 35.380672 38.146937 33.386719 35.335938 33.386719 A 3.764 3.764 0 0 0 35.009766 33.375 z M 27.517578 33.560547 L 27.517578 41.150391 L 30.140625 41.150391 L 30.140625 33.560547 L 27.517578 33.560547 z M 44.572266 33.560547 L 44.572266 41.150391 C 44.572266 41.878391 44.514219 42.636719 43.699219 42.636719 A 2.411 2.411 0 0 1 43.146484 42.591797 L 43.087891 44.253906 A 6.685 6.685 0 0 0 44.558594 44.384766 C 46.583594 44.384766 47.193359 43.115656 47.193359 41.222656 L 47.195312 41.214844 L 47.195312 33.560547 L 44.572266 33.560547 z M 52.490234 35.039062 A 1.392 1.392 0 0 1 53.849609 36.630859 L 50.933594 36.630859 C 50.991594 35.756859 51.443625 35.042969 52.390625 35.042969 A 1.392 1.392 0 0 1 52.490234 35.039062 z M 35.449219 35.042969 A 1.391 1.391 0 0 1 36.808594 36.634766 L 33.894531 36.634766 C 33.952531 35.760766 34.404562 35.046875 35.351562 35.046875 A 1.391 1.391 0 0 1 35.449219 35.042969 z M 118.5332 42.757812 L 118.0332 45.263672 L 119.31445 45.263672 L 120.08984 42.757812 L 118.5332 42.757812 z M 79.083984 42.933594 L 79.083984 44.853516 L 81.703125 44.853516 L 81.703125 42.933594 L 79.083984 42.933594 z M 117.29688 43.595703 L 114.7207 44.396484 L 114.7207 46.095703 L 113.17578 46.095703 L 113.17578 47.931641 L 114.67578 47.931641 L 114.67578 51.021484 C 114.67578 52.827484 115.24389 53.859375 117.58789 53.859375 A 12.522 12.522 0 0 0 119.23242 53.714844 L 119.14648 52.017578 A 5.043 5.043 0 0 1 118.3457 52.117188 C 117.5157 52.117188 117.29688 51.652375 117.29688 50.734375 L 117.29688 47.933594 L 119.13281 47.933594 L 119.13281 46.101562 L 117.29688 46.101562 L 117.29688 43.595703 z M 119.23242 53.714844 L 119.23242 53.71875 L 119.23438 53.714844 A 12.522 12.522 0 0 1 119.23242 53.714844 z M 73.771484 45.90625 A 3.763 3.763 0 0 0 70.035156 49.878906 C 70.035156 52.385906 71.942266 53.853516 74.447266 53.853516 A 7.6 7.6 0 0 0 77.228516 53.373047 L 77.228516 51.53125 A 4.908 4.908 0 0 1 74.914062 52.113281 C 73.631063 52.113281 72.829594 51.704297 72.683594 50.654297 L 77.927734 50.654297 L 77.929688 50.169922 C 77.929688 47.911922 76.908656 45.917969 74.097656 45.917969 A 3.763 3.763 0 0 0 73.771484 45.90625 z M 38.494141 45.912109 A 2.879 2.879 0 0 0 35.867188 47.490234 L 35.839844 47.490234 L 35.839844 46.089844 L 33.451172 46.089844 L 33.451172 53.677734 L 36.072266 53.677734 L 36.072266 50.476562 C 36.072266 48.845563 36.625594 48.103516 37.558594 48.103516 C 38.302594 48.103516 38.607422 48.743516 38.607422 49.603516 L 38.607422 53.681641 L 41.228516 53.681641 L 41.228516 50.480469 C 41.228516 48.849469 41.781844 48.107422 42.714844 48.107422 C 43.458844 48.107422 43.765625 48.747422 43.765625 49.607422 L 43.765625 53.685547 L 46.388672 53.681641 L 46.388672 49.208984 C 46.388672 47.154984 45.889938 45.919922 43.710938 45.919922 A 3.007 3.007 0 0 0 41.009766 47.373047 A 2.388 2.388 0 0 0 38.636719 45.919922 A 2.879 2.879 0 0 0 38.494141 45.912109 z M 21.029297 45.916016 A 7.208 7.208 0 0 0 20.798828 45.919922 C 19.282828 45.919922 17.564453 46.633859 17.564453 48.380859 C 17.564453 51.119859 21.292969 50.217047 21.292969 51.498047 C 21.292969 52.022047 20.767516 52.109375 20.228516 52.109375 A 6.481 6.481 0 0 1 17.767578 51.583984 L 17.621094 53.490234 A 8.564 8.564 0 0 0 20.373047 53.855469 C 22.093047 53.855469 23.914062 53.345266 23.914062 51.322266 C 23.914062 48.437266 20.013672 49.370453 20.013672 48.189453 C 20.013672 47.766453 20.655609 47.664062 21.224609 47.664062 A 4.277 4.277 0 0 1 23.261719 48.175781 L 23.462891 46.355469 A 7.208 7.208 0 0 0 21.029297 45.916016 z M 88.255859 45.916016 A 2.879 2.879 0 0 0 85.630859 47.494141 L 85.601562 47.494141 L 85.601562 46.095703 L 83.214844 46.095703 L 83.214844 53.683594 L 85.832031 53.683594 L 85.835938 50.476562 C 85.835938 48.845563 86.389266 48.101562 87.322266 48.101562 C 88.066266 48.101562 88.373047 48.742563 88.373047 49.601562 L 88.373047 53.681641 L 90.992188 53.681641 L 90.992188 50.480469 C 90.992188 48.849469 91.547469 48.107422 92.480469 48.107422 C 93.224469 48.107422 93.529297 48.748422 93.529297 49.607422 L 93.529297 53.685547 L 96.150391 53.685547 L 96.150391 49.214844 C 96.150391 47.160844 95.656656 45.923828 93.472656 45.923828 A 3.008 3.008 0 0 0 90.771484 47.378906 A 2.389 2.389 0 0 0 88.398438 45.923828 A 2.879 2.879 0 0 0 88.255859 45.916016 z M 28.246094 45.919922 A 7.837 7.837 0 0 0 25.451172 46.460938 L 25.494141 48.236328 A 4.936 4.936 0 0 1 27.912109 47.667969 C 28.859109 47.667969 29.633437 47.945469 29.648438 48.980469 A 7.723 7.723 0 0 0 28.423828 48.880859 C 27.023828 48.880859 24.505859 49.157656 24.505859 51.472656 C 24.505859 53.117656 25.84475 53.859375 27.34375 53.859375 L 27.345703 53.859375 A 2.6 2.6 0 0 0 29.751953 52.490234 L 29.779297 52.490234 C 29.779297 52.883234 29.824844 53.275594 29.839844 53.683594 L 32.238281 53.683594 A 9.265 9.265 0 0 1 32.09375 51.894531 L 32.09375 49.068359 C 32.09375 46.751359 30.419422 45.921875 28.482422 45.921875 A 7.837 7.837 0 0 0 28.246094 45.919922 z M 110.01367 45.919922 A 7.212 7.212 0 0 0 109.78125 45.921875 C 108.26725 45.921875 106.54883 46.635813 106.54883 48.382812 C 106.54883 51.121812 110.27734 50.220953 110.27734 51.501953 C 110.27734 52.025953 109.75189 52.113281 109.21289 52.113281 L 109.21289 52.111328 A 6.473 6.473 0 0 1 106.75391 51.587891 L 106.60742 53.494141 A 8.557 8.557 0 0 0 109.35938 53.857422 C 111.07837 53.857422 112.89648 53.347219 112.89648 51.324219 C 112.89648 48.439219 108.99609 49.372406 108.99609 48.191406 C 108.99609 47.768406 109.63998 47.667969 110.20898 47.667969 A 4.28 4.28 0 0 1 112.24609 48.177734 L 112.44727 46.359375 A 7.212 7.212 0 0 0 110.01367 45.919922 z M 101.53711 45.921875 C 99.032109 45.921875 97.125 47.376484 97.125 49.896484 C 97.125 52.403484 99.032109 53.859375 101.53711 53.859375 C 104.04211 53.859375 105.94922 52.403484 105.94922 49.896484 C 105.94922 47.389484 104.04211 45.921875 101.53711 45.921875 z M 51.775391 45.923828 C 49.270391 45.923828 47.363281 47.378438 47.363281 49.898438 C 47.363281 52.418437 49.270391 53.859375 51.775391 53.859375 C 54.280391 53.859375 56.1875 52.405438 56.1875 49.898438 C 56.1875 47.378438 54.280391 45.923828 51.775391 45.923828 z M 68.898438 45.927734 A 2.342 2.342 0 0 0 66.65625 47.5 L 66.626953 47.5 L 66.626953 46.099609 L 64.240234 46.097656 L 64.240234 53.685547 L 66.859375 53.685547 L 66.859375 50.486328 C 66.859375 49.000328 67.543578 48.111328 68.767578 48.111328 A 3.021 3.021 0 0 1 69.65625 48.199219 L 69.787109 46.015625 A 5.53 5.53 0 0 0 68.898438 45.927734 z M 56.746094 46.089844 L 56.746094 48.011719 L 60.140625 48.011719 L 56.673828 51.580078 L 56.673828 53.681641 L 63.197266 53.681641 L 63.197266 51.759766 L 59.673828 51.759766 L 63.138672 48.189453 L 63.138672 46.089844 L 56.746094 46.089844 z M 79.082031 46.091797 L 79.082031 53.681641 C 79.082031 54.409641 79.023984 55.167969 78.208984 55.167969 A 2.41 2.41 0 0 1 77.65625 55.123047 L 77.597656 56.783203 A 6.652 6.652 0 0 0 79.068359 56.914062 C 81.093359 56.914062 81.705078 55.647906 81.705078 53.753906 L 81.707031 53.753906 L 81.707031 46.091797 L 79.082031 46.091797 z M 74.212891 47.578125 A 1.391 1.391 0 0 1 75.570312 49.169922 L 72.65625 49.169922 C 72.71525 48.293922 73.166281 47.580078 74.113281 47.580078 A 1.391 1.391 0 0 1 74.212891 47.578125 z M 101.53711 47.755859 C 102.74711 47.755859 103.24219 48.755484 103.24219 49.896484 C 103.24219 51.019484 102.74311 52.025391 101.53711 52.025391 C 100.33111 52.025391 99.832031 51.024484 99.832031 49.896484 C 99.832031 48.768484 100.32711 47.755859 101.53711 47.755859 z M 51.775391 47.757812 C 52.981391 47.757812 53.480469 48.757437 53.480469 49.898438 C 53.480469 51.039438 52.981391 52.025391 51.775391 52.025391 C 50.569391 52.025391 50.068359 51.026437 50.068359 49.898438 C 50.068359 48.761437 50.569391 47.757812 51.775391 47.757812 z M 28.544922 50.275391 C 28.938922 50.275391 29.319297 50.305313 29.654297 50.320312 A 1.711 1.711 0 0 1 28.035156 52.113281 C 27.423156 52.113281 26.957031 51.80725 26.957031 51.28125 C 26.957031 50.55325 27.656922 50.275391 28.544922 50.275391 z M 28.021484 60.128906 L 26.134766 63.378906 L 26.853516 63.796875 L 28.740234 60.546875 L 28.021484 60.128906 z M 20.632812 60.130859 L 19.912109 60.546875 L 22.898438 65.71875 L 22.910156 65.738281 L 23.630859 66.986328 L 23.664062 67.044922 L 24.548828 68.578125 L 25.269531 68.162109 L 24.625 67.044922 L 24.595703 66.978516 L 23.875 65.730469 L 23.863281 65.710938 L 20.632812 60.130859 z M 24.689453 64.138672 L 23.96875 64.554688 L 24.636719 65.710938 L 24.648438 65.730469 L 25.369141 66.978516 L 25.402344 67.037109 L 26.287109 68.570312 L 27.009766 68.154297 L 26.363281 67.037109 L 26.328125 66.978516 L 25.609375 65.730469 L 25.597656 65.710938 L 24.689453 64.138672 z M 26.421875 64.138672 L 25.701172 64.554688 L 26.367188 65.710938 L 26.380859 65.730469 L 27.099609 66.978516 L 27.134766 67.037109 L 30.333984 72.585938 L 31.054688 72.169922 L 28.091797 67.035156 L 28.0625 66.978516 L 27.341797 65.730469 L 27.330078 65.710938 L 26.421875 64.138672 z M 28.060547 65.730469 L 28.78125 66.978516 L 38.605469 66.978516 L 38.605469 65.730469 L 28.060547 65.730469 z M 122.44727 65.755859 C 117.53827 65.755859 114.26758 69.28125 114.26758 74.15625 A 8.169 8.169 0 1 0 130.59766 74.15625 C 130.59766 69.27925 127.32427 65.755859 122.44727 65.755859 z M 122.44922 68.146484 C 125.59622 68.146484 127.44922 71.10325 127.44922 74.15625 C 127.44922 77.01925 125.90722 80.167969 122.44922 80.167969 C 118.95622 80.167969 117.41406 77.01925 117.41406 74.15625 C 117.41406 71.10425 119.27122 68.146484 122.44922 68.146484 z M 24.128906 68.919922 L 22.240234 72.169922 L 22.960938 72.587891 L 24.847656 69.335938 L 24.128906 68.919922 z M 94.855469 71.71875 L 94.855469 73.478516 L 94.84375 73.478516 A 1.094 1.094 0 0 0 93.925781 73.050781 C 92.982781 73.050781 92.636719 73.802391 92.636719 74.650391 C 92.636719 75.498391 92.982781 76.267578 93.925781 76.267578 A 1.141 1.141 0 0 0 94.867188 75.849609 L 94.880859 75.849609 L 94.880859 76.195312 L 95.65625 76.195312 L 95.65625 71.71875 L 94.855469 71.71875 z M 102.28516 71.800781 L 102.28516 72.564453 L 103.08594 72.564453 L 103.08594 71.800781 L 102.28516 71.800781 z M 82.570312 71.832031 L 82.070312 72.703125 L 82.570312 72.703125 L 83.388672 71.832031 L 82.570312 71.832031 z M 70.287109 71.835938 L 69.787109 72.705078 L 70.287109 72.705078 L 71.105469 71.835938 L 70.287109 71.835938 z M 97.855469 71.835938 L 97.355469 72.705078 L 97.855469 72.705078 L 98.673828 71.835938 L 97.855469 71.835938 z M 66.019531 72.03125 L 66.019531 76.197266 L 66.855469 76.197266 L 66.855469 74.371094 L 68.263672 74.371094 L 68.263672 73.714844 L 66.855469 73.714844 L 66.855469 72.689453 L 68.335938 72.689453 L 68.335938 72.03125 L 66.019531 72.03125 z M 82.335938 73.041016 A 2.757 2.757 0 0 0 81.267578 73.273438 L 81.294922 73.966797 A 1.608 1.608 0 0 1 82.244141 73.632812 C 82.715141 73.632812 82.935547 73.799922 82.935547 74.294922 L 82.494141 74.294922 A 2.436 2.436 0 0 0 81.462891 74.472656 A 0.9 0.9 0 0 0 80.9375 75.349609 A 0.98 0.98 0 0 0 82.011719 76.263672 A 1.1 1.1 0 0 0 82.960938 75.732422 L 82.972656 75.732422 A 3.773 3.773 0 0 0 83.009766 76.191406 L 83.708984 76.191406 C 83.690984 75.952406 83.679828 75.738859 83.673828 75.505859 C 83.667828 75.272859 83.660156 75.044375 83.660156 74.734375 L 83.660156 74.341797 C 83.660156 73.433797 83.272937 73.041016 82.335938 73.041016 z M 90.773438 73.042969 A 2.753 2.753 0 0 0 89.705078 73.275391 L 89.740234 73.96875 A 1.609 1.609 0 0 1 90.689453 73.634766 C 91.161453 73.634766 91.380859 73.801875 91.380859 74.296875 L 90.933594 74.296875 A 2.437 2.437 0 0 0 89.900391 74.474609 A 0.9 0.9 0 0 0 89.376953 75.351562 A 0.98 0.98 0 0 0 90.449219 76.265625 A 1.1 1.1 0 0 0 91.398438 75.734375 L 91.410156 75.734375 A 3.614 3.614 0 0 0 91.447266 76.193359 L 92.146484 76.193359 C 92.128484 75.954359 92.117328 75.740813 92.111328 75.507812 C 92.105328 75.274812 92.099609 75.046328 92.099609 74.736328 L 92.099609 74.34375 C 92.099609 73.43575 91.710437 73.042969 90.773438 73.042969 z M 97.619141 73.044922 A 2.755 2.755 0 0 0 96.552734 73.277344 L 96.580078 73.96875 A 1.61 1.61 0 0 1 97.529297 73.634766 C 98.000297 73.634766 98.220703 73.801875 98.220703 74.296875 L 97.779297 74.296875 A 2.439 2.439 0 0 0 96.746094 74.476562 A 0.9 0.9 0 0 0 96.222656 75.353516 A 0.98 0.98 0 0 0 97.296875 76.265625 A 1.1 1.1 0 0 0 98.244141 75.734375 L 98.257812 75.734375 A 3.78 3.78 0 0 0 98.292969 76.195312 L 98.992188 76.195312 C 98.974187 75.956313 98.963031 75.740813 98.957031 75.507812 C 98.951031 75.274812 98.945312 75.048281 98.945312 74.738281 L 98.945312 74.34375 C 98.945312 73.43575 98.556141 73.044922 97.619141 73.044922 z M 105.06836 73.046875 A 2.753 2.753 0 0 0 104 73.279297 L 104.02734 73.972656 A 1.61 1.61 0 0 1 104.97656 73.638672 C 105.44856 73.638672 105.66992 73.805781 105.66992 74.300781 L 105.22656 74.300781 A 2.437 2.437 0 0 0 104.19531 74.478516 A 0.9 0.9 0 0 0 103.66992 75.355469 A 0.98 0.98 0 0 0 104.74414 76.269531 A 1.1 1.1 0 0 0 105.69336 75.738281 L 105.70508 75.738281 A 3.773 3.773 0 0 0 105.74023 76.197266 L 106.44141 76.197266 C 106.42341 75.958266 106.4103 75.744719 106.4043 75.511719 C 106.3983 75.278719 106.39258 75.050234 106.39258 74.740234 L 106.39258 74.347656 C 106.39258 73.439656 106.00536 73.046875 105.06836 73.046875 z M 73.722656 73.050781 A 0.879 0.879 0 0 0 73.712891 73.052734 A 0.941 0.941 0 0 0 72.871094 73.822266 L 72.859375 73.822266 L 72.859375 73.121094 L 72.150391 73.121094 L 72.150391 76.197266 L 72.949219 76.197266 L 72.949219 75.068359 C 72.949219 74.627359 72.949609 73.816406 73.599609 73.816406 A 0.813 0.813 0 0 1 73.957031 73.882812 L 73.957031 73.076172 A 0.879 0.879 0 0 0 73.722656 73.050781 z M 87.677734 73.050781 A 1.149 1.149 0 0 0 86.757812 73.542969 L 86.746094 73.542969 L 86.746094 73.123047 L 85.988281 73.123047 L 85.992188 76.193359 L 86.792969 76.193359 L 86.792969 74.693359 C 86.792969 74.299359 86.917188 73.673828 87.492188 73.673828 C 88.005188 73.673828 88.011719 74.180641 88.011719 74.556641 L 88.011719 76.197266 L 88.810547 76.197266 L 88.810547 74.259766 C 88.810547 73.566766 88.494578 73.052734 87.767578 73.052734 A 1.149 1.149 0 0 0 87.677734 73.050781 z M 70.103516 73.052734 A 1.438 1.438 0 0 0 68.675781 74.675781 A 1.46 1.46 0 0 0 70.28125 76.267578 A 2.112 2.112 0 0 0 71.337891 76.023438 L 71.339844 75.373047 A 2.074 2.074 0 0 1 70.318359 75.683594 A 0.8 0.8 0 0 1 69.441406 74.908203 L 71.564453 74.908203 C 71.564453 73.834203 71.243516 73.052734 70.103516 73.052734 z M 100.9668 73.054688 A 1.612 1.612 0 0 0 100.99609 76.271484 A 2.593 2.593 0 0 0 101.79688 76.171875 L 101.75977 75.509766 A 1.692 1.692 0 0 1 101.14453 75.652344 C 100.58353 75.652344 100.31445 75.217344 100.31445 74.652344 C 100.31445 74.087344 100.63195 73.679688 101.12695 73.679688 A 1.209 1.209 0 0 1 101.66992 73.792969 L 101.74219 73.154297 A 2.607 2.607 0 0 0 100.9668 73.054688 z M 75.666016 73.072266 A 1.6085 1.6085 0 0 0 74.089844 74.681641 A 1.6085 1.6085 0 0 0 77.306641 74.681641 A 1.6085 1.6085 0 0 0 75.666016 73.072266 z M 77.533203 73.117188 L 78.675781 76.191406 L 79.574219 76.191406 L 80.708984 73.117188 L 79.908203 73.117188 L 79.169922 75.355469 L 79.15625 75.355469 L 78.392578 73.117188 L 77.533203 73.117188 z M 102.28516 73.123047 L 102.28516 76.197266 L 103.08594 76.197266 L 103.08594 73.123047 L 102.28516 73.123047 z M 70.142578 73.636719 A 0.7 0.7 0 0 1 70.148438 73.636719 C 70.596438 73.636719 70.776781 73.971375 70.800781 74.359375 L 69.439453 74.359375 A 0.7 0.7 0 0 1 70.142578 73.636719 z M 75.673828 73.664062 A 0.784 0.784 0 0 1 76.472656 74.580078 C 76.472656 75.093078 76.310313 75.642578 75.695312 75.642578 C 75.080312 75.642578 74.925781 75.087078 74.925781 74.580078 L 74.927734 74.580078 A 0.784 0.784 0 0 1 75.673828 73.664062 z M 94.134766 73.669922 C 94.653766 73.669922 94.849609 74.218437 94.849609 74.648438 C 94.849609 75.078438 94.677391 75.648438 94.150391 75.648438 C 93.623391 75.648438 93.476562 75.075438 93.476562 74.648438 L 93.472656 74.648438 C 93.472656 74.236438 93.615766 73.669922 94.134766 73.669922 z M 82.589844 74.771484 L 82.935547 74.771484 A 1.019 1.019 0 0 1 82.769531 75.404297 A 0.678 0.678 0 0 1 82.207031 75.679688 C 81.921031 75.679688 81.701172 75.565734 81.701172 75.302734 C 81.701172 74.831734 82.231844 74.771484 82.589844 74.771484 z M 91.035156 74.773438 L 91.380859 74.773438 A 1.022 1.022 0 0 1 91.214844 75.40625 A 0.679 0.679 0 0 1 90.652344 75.681641 C 90.366344 75.681641 90.146484 75.567687 90.146484 75.304688 C 90.146484 74.833687 90.677156 74.773438 91.035156 74.773438 z M 97.875 74.775391 L 98.220703 74.775391 A 1.019 1.019 0 0 1 98.054688 75.408203 A 0.679 0.679 0 0 1 97.492188 75.681641 C 97.206187 75.681641 96.986328 75.569641 96.986328 75.306641 C 96.986328 74.835641 97.517 74.775391 97.875 74.775391 z M 105.32227 74.777344 L 105.66797 74.777344 A 1.022 1.022 0 0 1 105.50195 75.410156 A 0.679 0.679 0 0 1 104.93945 75.685547 C 104.65345 75.685547 104.43359 75.571594 104.43359 75.308594 C 104.43359 74.837594 104.96427 74.777344 105.32227 74.777344 z M 132.74609 78.908203 A 1.957 1.957 0 0 0 132.54883 78.927734 A 4.739 4.739 0 0 0 130.43945 79.435547 L 130.55273 80.617188 A 3.082 3.082 0 0 1 132.19141 80.046875 C 132.77241 80.046875 133.35156 80.353859 133.35156 81.005859 C 133.35156 82.305859 130.93834 84.324844 130.27734 84.964844 L 130.27734 86.154297 L 135 86.15625 L 135 85.035156 L 132.09961 85.035156 C 133.26061 83.894156 134.77734 82.510859 134.77734 81.005859 A 1.957 1.957 0 0 0 132.74609 78.908203 z " style="fill:#fff"/>
</svg>
