<svg xmlns="http://www.w3.org/2000/svg" width="113.925" height="42.689" viewBox="0 0 113.925 42.689"><g transform="translate(0)"><path d="M57.361,52.441H74.326v7.025H60.283v2.921H74.326v7.019H57.361Zm0-17.814,14.9,14.9h-14.9ZM37.482,32.562H54.447V49.527H37.482Zm21.944,0h14.9v14.9ZM34.561,29.641v22.8H54.447V69.406H37.482V55.366H34.561V72.33H77.247V29.641Z" transform="translate(-34.561 -29.641)" fill="#fff"/><g transform="translate(54.684 0.672)"><path d="M56.564,32.733a1.606,1.606,0,0,0-1.7-1.5,1.463,1.463,0,0,0-1.635,1.425c0,.75.478,1.283,1.567,1.567.365.1.734.178,1.089.259a2.825,2.825,0,0,1,2.449,2.873A3.09,3.09,0,0,1,55,40.33a3.4,3.4,0,0,1-3.474-2.97l1.431-.543A2.037,2.037,0,0,0,55,38.956c1.157,0,1.907-.643,1.907-1.6,0-1.018-.885-1.36-1.567-1.5-.326-.068-.746-.178-1.089-.284A3.06,3.06,0,0,1,51.8,32.6a2.834,2.834,0,0,1,3.063-2.7,2.985,2.985,0,0,1,3.2,2.834Z" transform="translate(-51.39 -29.737)" fill="#fff"/><path d="M55.567,38.971,55.7,40.2h-1.36L54.2,38.971V29.849h1.364Z" transform="translate(-45.417 -29.849)" fill="#fff"/><path d="M58.444,31.029a3.335,3.335,0,1,1-3.335,3.335A3.3,3.3,0,0,1,58.444,31.029Zm0,5.445a1.93,1.93,0,0,0,1.974-2.11,1.979,1.979,0,1,0-3.949,0A1.93,1.93,0,0,0,58.444,36.474Z" transform="translate(-43.395 -27.216)" fill="#fff"/><path d="M61.877,31.071H63.24l-2.317,6.4H59.7l-2.317-6.4h1.364l1.564,4.576Z" transform="translate(-38.317 -27.122)" fill="#fff"/><path d="M60.793,34.7a1.731,1.731,0,0,0,1.835,1.771,1.587,1.587,0,0,0,1.58-.953l1.144.543A3.116,3.116,0,0,1,62.56,37.7a3.172,3.172,0,0,1-3.131-3.335,3.134,3.134,0,0,1,3.131-3.335A3.048,3.048,0,0,1,65.552,34.3l-.132.407Zm.065-1.2h3.27a1.509,1.509,0,0,0-1.567-1.251A1.658,1.658,0,0,0,60.857,33.5Z" transform="translate(-33.756 -27.216)" fill="#fff"/><path d="M61.789,31.165h1.225l.139.543.065.068.068-.068a1.955,1.955,0,0,1,1.5-.679,2.43,2.43,0,0,1,2.585,2.585v3.949h-1.36V33.614a1.245,1.245,0,0,0-1.364-1.36,1.509,1.509,0,0,0-1.5,1.444v3.865H61.789Z" transform="translate(-28.49 -27.216)" fill="#fff"/><path d="M63.918,35.792l1.225-.475A1.29,1.29,0,0,0,66.435,36.5c.682,0,1.021-.368,1.021-.776s-.271-.6-.818-.691c-.233-.042-.462-.1-.682-.152-1.086-.271-1.839-.924-1.839-1.945a2.074,2.074,0,0,1,2.249-1.907,2.234,2.234,0,0,1,2.317,1.907H67.321c0-.41-.407-.711-.953-.711s-.953.3-.953.711.326.637.818.734l.682.139c1.06.229,1.835.827,1.835,1.916A2.154,2.154,0,0,1,66.435,37.7,2.447,2.447,0,0,1,63.918,35.792Z" transform="translate(-23.739 -27.216)" fill="#fff"/><path d="M69.847,33.8h1.771l-3.079,3.076L71.753,40.2H69.982l-2.721-2.724V40.2H65.9V29.849h1.364v6.537Z" transform="translate(-19.321 -29.849)" fill="#fff"/><path d="M74.329,39.772H73.1l-.136-.543-.068-.071-.071.071a2.58,2.58,0,0,1-1.764.679,3.335,3.335,0,0,1,0-6.67,2.58,2.58,0,0,1,1.764.679l.071.068.068-.068.136-.543h1.225Zm-1.225-3.2a2.009,2.009,0,0,0-1.974-2.11,2.114,2.114,0,0,0,0,4.22A2.009,2.009,0,0,0,73.1,36.573Zm-1.076-6.534-1.7,2.585H71.66l1.347-1.881Z" transform="translate(-15.088 -29.425)" fill="#fff"/><path d="M51.611,35.619h1.225l.136.543.068.071.068-.071a1.958,1.958,0,0,1,1.5-.679,2.428,2.428,0,0,1,2.585,2.585v3.949h-1.36V38.068a1.24,1.24,0,0,0-1.36-1.36,1.512,1.512,0,0,0-1.5,1.444v3.865h-1.36Z" transform="translate(-51.201 -17.278)" fill="#fff"/><path d="M60.318,44.226H59.093l-.136-.546-.071-.068-.068.068a2.569,2.569,0,0,1-1.768.682,3.335,3.335,0,0,1,0-6.67,2.582,2.582,0,0,1,1.768.679l.068.071.071-.071.136-.543h1.225Zm-1.225-3.2a2.009,2.009,0,0,0-1.978-2.11,2.114,2.114,0,0,0,0,4.22A2.009,2.009,0,0,0,59.093,41.027Zm-1.076-6.534-1.706,2.585h1.335L58.993,35.2Z" transform="translate(-46.359 -19.487)" fill="#fff"/><path d="M56.415,35.619h1.228l.136.682.065.068.071-.068a1.88,1.88,0,0,1,1.5-.818,1.234,1.234,0,0,1,.682.136v1.225h-.814a1.511,1.511,0,0,0-1.5,1.444v3.729H56.415Z" transform="translate(-40.481 -17.278)" fill="#fff"/><path d="M61.078,35.483a3.335,3.335,0,1,1-3.335,3.335A3.3,3.3,0,0,1,61.078,35.483Zm0,5.445a2.115,2.115,0,1,0-1.974-2.11A1.931,1.931,0,0,0,61.078,40.928Z" transform="translate(-37.518 -17.278)" fill="#fff"/><path d="M66.7,44.65H65.476L65.34,44.1l-.068-.068L65.2,44.1a2.578,2.578,0,0,1-1.771.682,3.335,3.335,0,0,1,0-6.67,2.615,2.615,0,0,1,1.771.679l.068.071.068-.071V34.3H66.7Zm-3.2-5.309a2.114,2.114,0,0,0,0,4.22,2.115,2.115,0,0,0,0-4.22Z" transform="translate(-32.109 -19.911)" fill="#fff"/><path d="M62.8,35.619h1.225l.139.543.065.071.068-.071a1.951,1.951,0,0,1,1.5-.679,2.431,2.431,0,0,1,2.588,2.585v3.949H67.018V38.068a1.239,1.239,0,0,0-1.36-1.36,1.5,1.5,0,0,0-1.493,1.444v3.865H62.8Z" transform="translate(-26.232 -17.278)" fill="#fff"/><path d="M71.508,44.226H70.28l-.136-.546-.068-.068-.071.068a2.564,2.564,0,0,1-1.768.682,3.335,3.335,0,0,1,0-6.67,2.576,2.576,0,0,1,1.768.679l.071.071.068-.071.136-.543h1.228Zm-1.228-3.2a2.008,2.008,0,0,0-1.971-2.11,2.114,2.114,0,0,0,0,4.22A2.008,2.008,0,0,0,70.28,41.027ZM69.2,34.493l-1.7,2.585h1.335L70.186,35.2Z" transform="translate(-21.39 -19.487)" fill="#fff"/><path d="M52.712,44.9a2.466,2.466,0,0,1-1.228-2.178,2.759,2.759,0,0,1,2.792-2.789,2,2,0,0,1,1.564.675l.068.071.071-.071.136-.546h.953v2.659A2.466,2.466,0,0,1,55.84,44.9a2.178,2.178,0,0,1,1.228,1.987,2.82,2.82,0,0,1-5.584,0A2.2,2.2,0,0,1,52.712,44.9Zm1.564-.614a1.567,1.567,0,1,0-1.5-1.564A1.484,1.484,0,0,0,54.276,44.291Zm0,3.855a1.332,1.332,0,0,0,1.5-1.267,1.513,1.513,0,0,0-3,0A1.335,1.335,0,0,0,54.276,48.146Z" transform="translate(-51.484 -7.337)" fill="#fff"/><path d="M60.168,46.469H58.943l-.139-.543-.065-.068-.068.068a2.592,2.592,0,0,1-1.774.682,3.336,3.336,0,0,1,0-6.67,2.618,2.618,0,0,1,1.774.675l.068.071.065-.071.139-.546h1.225Zm-3.2-5.309a2.114,2.114,0,0,0,0,4.22,2.115,2.115,0,0,0,0-4.22Z" transform="translate(-46.687 -7.337)" fill="#fff"/><path d="M57.628,47.877l.132,1.225H56.4l-.136-1.225V38.758h1.36Z" transform="translate(-40.809 -9.97)" fill="#fff"/><path d="M58.538,45.82a1.734,1.734,0,0,0,1.835,1.771,1.574,1.574,0,0,0,1.577-.95l1.147.543a3.13,3.13,0,0,1-2.792,1.635,3.175,3.175,0,0,1-3.131-3.338,3.132,3.132,0,0,1,3.131-3.332,3.051,3.051,0,0,1,3,3.267l-.139.4Zm.065-1.2h3.267a1.5,1.5,0,0,0-1.564-1.254A1.654,1.654,0,0,0,58.6,44.624Zm3.723-4.97-1.351,1.877H59.64l1.7-2.585Z" transform="translate(-38.788 -9.548)" fill="#fff"/><path d="M59.534,40.067h1.225l.136.685.071.068.068-.068a1.876,1.876,0,0,1,1.5-.814,1.287,1.287,0,0,1,.682.129V41.3h-.818a1.511,1.511,0,0,0-1.5,1.444v3.729h-1.36Z" transform="translate(-33.522 -7.337)" fill="#fff"/><path d="M61.072,39.137h1.364v1.5H61.072Zm.013,2.718h1.335v6.4H61.085Z" transform="translate(-30.09 -9.124)" fill="#fff"/><path d="M68.515,46.469H67.29l-.136-.543-.068-.068-.071.068a2.57,2.57,0,0,1-1.768.682,3.335,3.335,0,0,1,0-6.67,2.6,2.6,0,0,1,1.768.675l.071.071.068-.071.136-.546h1.225Zm-3.2-5.309a2.114,2.114,0,0,0,0,4.22,2.115,2.115,0,0,0,0-4.22Z" transform="translate(-28.068 -7.337)" fill="#fff"/></g></g></svg>