<svg height="42.689" viewBox="0 0 113.925 42.689" width="113.925" xmlns="http://www.w3.org/2000/svg"><g fill="#fff"><path d="m57.361 52.441h16.965v7.025h-14.043v2.921h14.043v7.019h-16.965zm0-17.814 14.9 14.9h-14.9zm-19.879-2.065h16.965v16.965h-16.965zm21.944 0h14.9v14.9zm-24.865-2.921v22.8h19.886v16.965h-16.965v-14.04h-2.921v16.964h42.686v-42.689z" transform="translate(-34.561 -29.641)"/><path d="m56.564 32.733a1.606 1.606 0 0 0 -1.7-1.5 1.463 1.463 0 0 0 -1.635 1.425c0 .75.478 1.283 1.567 1.567.365.1.734.178 1.089.259a2.825 2.825 0 0 1 2.449 2.873 3.09 3.09 0 0 1 -3.334 2.973 3.4 3.4 0 0 1 -3.474-2.97l1.431-.543a2.037 2.037 0 0 0 2.043 2.139c1.157 0 1.907-.643 1.907-1.6 0-1.018-.885-1.36-1.567-1.5-.326-.068-.746-.178-1.089-.284a3.06 3.06 0 0 1 -2.451-2.972 2.834 2.834 0 0 1 3.063-2.7 2.985 2.985 0 0 1 3.2 2.834z" transform="translate(3.294 -29.065)"/><path d="m55.567 38.971.133 1.229h-1.36l-.14-1.229v-9.122h1.364z" transform="translate(9.267 -29.177)"/><path d="m58.444 31.029a3.335 3.335 0 1 1 -3.335 3.335 3.3 3.3 0 0 1 3.335-3.335zm0 5.445a1.93 1.93 0 0 0 1.974-2.11 1.979 1.979 0 1 0 -3.949 0 1.93 1.93 0 0 0 1.975 2.11z" transform="translate(11.289 -26.544)"/><path d="m61.877 31.071h1.363l-2.317 6.4h-1.223l-2.317-6.4h1.364l1.564 4.576z" transform="translate(16.367 -26.45)"/><path d="m60.793 34.7a1.731 1.731 0 0 0 1.835 1.771 1.587 1.587 0 0 0 1.58-.953l1.144.543a3.116 3.116 0 0 1 -2.792 1.639 3.172 3.172 0 0 1 -3.131-3.335 3.134 3.134 0 0 1 3.131-3.335 3.048 3.048 0 0 1 2.992 3.27l-.132.407zm.065-1.2h3.27a1.509 1.509 0 0 0 -1.567-1.251 1.658 1.658 0 0 0 -1.704 1.251z" transform="translate(20.928 -26.544)"/><path d="m61.789 31.165h1.225l.139.543.065.068.068-.068a1.955 1.955 0 0 1 1.5-.679 2.43 2.43 0 0 1 2.585 2.585v3.949h-1.36v-3.949a1.245 1.245 0 0 0 -1.364-1.36 1.509 1.509 0 0 0 -1.5 1.444v3.865h-1.358z" transform="translate(26.194 -26.544)"/><path d="m63.918 35.792 1.225-.475a1.29 1.29 0 0 0 1.292 1.183c.682 0 1.021-.368 1.021-.776s-.271-.6-.818-.691c-.233-.042-.462-.1-.682-.152-1.086-.271-1.839-.924-1.839-1.945a2.074 2.074 0 0 1 2.249-1.907 2.234 2.234 0 0 1 2.317 1.907h-1.362c0-.41-.407-.711-.953-.711s-.953.3-.953.711.326.637.818.734l.682.139c1.06.229 1.835.827 1.835 1.916a2.154 2.154 0 0 1 -2.315 1.975 2.447 2.447 0 0 1 -2.517-1.908z" transform="translate(30.945 -26.544)"/><path d="m69.847 33.8h1.771l-3.079 3.076 3.214 3.324h-1.771l-2.721-2.724v2.724h-1.361v-10.351h1.364v6.537z" transform="translate(35.363 -29.177)"/><path d="m74.329 39.772h-1.229l-.136-.543-.068-.071-.071.071a2.58 2.58 0 0 1 -1.764.679 3.335 3.335 0 0 1 0-6.67 2.58 2.58 0 0 1 1.764.679l.071.068.068-.068.136-.543h1.225zm-1.225-3.2a2.009 2.009 0 0 0 -1.974-2.11 2.114 2.114 0 0 0 0 4.22 2.009 2.009 0 0 0 1.97-2.109zm-1.076-6.534-1.7 2.585h1.332l1.347-1.881z" transform="translate(39.596 -28.753)"/><path d="m51.611 35.619h1.225l.136.543.068.071.068-.071a1.958 1.958 0 0 1 1.5-.679 2.428 2.428 0 0 1 2.585 2.585v3.949h-1.36v-3.949a1.24 1.24 0 0 0 -1.36-1.36 1.512 1.512 0 0 0 -1.5 1.444v3.865h-1.36z" transform="translate(3.483 -16.606)"/><path d="m60.318 44.226h-1.225l-.136-.546-.071-.068-.068.068a2.569 2.569 0 0 1 -1.768.682 3.335 3.335 0 0 1 0-6.67 2.582 2.582 0 0 1 1.768.679l.068.071.071-.071.136-.543h1.225zm-1.225-3.2a2.009 2.009 0 0 0 -1.978-2.11 2.114 2.114 0 0 0 0 4.22 2.009 2.009 0 0 0 1.978-2.109zm-1.076-6.534-1.706 2.585h1.335l1.347-1.877z" transform="translate(8.325 -18.815)"/><path d="m56.415 35.619h1.228l.136.682.065.068.071-.068a1.88 1.88 0 0 1 1.5-.818 1.234 1.234 0 0 1 .682.136v1.225h-.814a1.511 1.511 0 0 0 -1.5 1.444v3.729h-1.368z" transform="translate(14.203 -16.606)"/><path d="m61.078 35.483a3.335 3.335 0 1 1 -3.335 3.335 3.3 3.3 0 0 1 3.335-3.335zm0 5.445a2.115 2.115 0 1 0 -1.974-2.11 1.931 1.931 0 0 0 1.974 2.11z" transform="translate(17.166 -16.606)"/><path d="m66.7 44.65h-1.224l-.136-.55-.068-.068-.072.068a2.578 2.578 0 0 1 -1.771.682 3.335 3.335 0 0 1 0-6.67 2.615 2.615 0 0 1 1.771.679l.068.071.068-.071v-4.491h1.364zm-3.2-5.309a2.114 2.114 0 0 0 0 4.22 2.115 2.115 0 0 0 0-4.22z" transform="translate(22.575 -19.239)"/><path d="m62.8 35.619h1.225l.139.543.065.071.068-.071a1.951 1.951 0 0 1 1.5-.679 2.431 2.431 0 0 1 2.588 2.585v3.949h-1.367v-3.949a1.239 1.239 0 0 0 -1.36-1.36 1.5 1.5 0 0 0 -1.493 1.444v3.865h-1.365z" transform="translate(28.452 -16.606)"/><path d="m71.508 44.226h-1.228l-.136-.546-.068-.068-.071.068a2.564 2.564 0 0 1 -1.768.682 3.335 3.335 0 0 1 0-6.67 2.576 2.576 0 0 1 1.768.679l.071.071.068-.071.136-.543h1.228zm-1.228-3.2a2.008 2.008 0 0 0 -1.971-2.11 2.114 2.114 0 0 0 0 4.22 2.008 2.008 0 0 0 1.971-2.109zm-1.08-6.533-1.7 2.585h1.335l1.351-1.878z" transform="translate(33.294 -18.815)"/><path d="m52.712 44.9a2.466 2.466 0 0 1 -1.228-2.178 2.759 2.759 0 0 1 2.792-2.789 2 2 0 0 1 1.564.675l.068.071.071-.071.136-.546h.953v2.659a2.466 2.466 0 0 1 -1.228 2.179 2.178 2.178 0 0 1 1.228 1.987 2.82 2.82 0 0 1 -5.584 0 2.2 2.2 0 0 1 1.228-1.987zm1.564-.614a1.567 1.567 0 1 0 -1.5-1.564 1.484 1.484 0 0 0 1.5 1.569zm0 3.855a1.332 1.332 0 0 0 1.5-1.267 1.513 1.513 0 0 0 -3 0 1.335 1.335 0 0 0 1.5 1.272z" transform="translate(3.2 -6.665)"/><path d="m60.168 46.469h-1.225l-.139-.543-.065-.068-.068.068a2.592 2.592 0 0 1 -1.774.682 3.336 3.336 0 0 1 0-6.67 2.618 2.618 0 0 1 1.774.675l.068.071.065-.071.139-.546h1.225zm-3.2-5.309a2.114 2.114 0 0 0 0 4.22 2.115 2.115 0 0 0 0-4.22z" transform="translate(7.997 -6.665)"/><path d="m57.628 47.877.132 1.225h-1.36l-.136-1.225v-9.119h1.36z" transform="translate(13.875 -9.298)"/><path d="m58.538 45.82a1.734 1.734 0 0 0 1.835 1.771 1.574 1.574 0 0 0 1.577-.95l1.147.543a3.13 3.13 0 0 1 -2.792 1.635 3.175 3.175 0 0 1 -3.131-3.338 3.132 3.132 0 0 1 3.131-3.332 3.051 3.051 0 0 1 3 3.267l-.139.4zm.065-1.2h3.267a1.5 1.5 0 0 0 -1.564-1.254 1.654 1.654 0 0 0 -1.706 1.258zm3.723-4.97-1.351 1.877h-1.335l1.7-2.585z" transform="translate(15.896 -8.876)"/><path d="m59.534 40.067h1.225l.136.685.071.068.068-.068a1.876 1.876 0 0 1 1.5-.814 1.287 1.287 0 0 1 .682.129v1.233h-.818a1.511 1.511 0 0 0 -1.5 1.444v3.729h-1.36z" transform="translate(21.162 -6.665)"/><path d="m61.072 39.137h1.364v1.5h-1.364zm.013 2.718h1.335v6.4h-1.335z" transform="translate(24.594 -8.452)"/><path d="m68.515 46.469h-1.225l-.136-.543-.068-.068-.071.068a2.57 2.57 0 0 1 -1.768.682 3.335 3.335 0 0 1 0-6.67 2.6 2.6 0 0 1 1.768.675l.071.071.068-.071.136-.546h1.225zm-3.2-5.309a2.114 2.114 0 0 0 0 4.22 2.115 2.115 0 0 0 0-4.22z" transform="translate(26.616 -6.665)"/></g></svg>