<?xml version="1.0" encoding="UTF-8" standalone="no"?>
<svg
   xmlns:dc="http://purl.org/dc/elements/1.1/"
   xmlns:cc="http://creativecommons.org/ns#"
   xmlns:rdf="http://www.w3.org/1999/02/22-rdf-syntax-ns#"
   xmlns:svg="http://www.w3.org/2000/svg"
   xmlns="http://www.w3.org/2000/svg"
   id="svg11"
   version="1.1"
   viewBox="0 0 222.079 25.115"
   height="25.115"
   width="222.079">
  <metadata
     id="metadata17">
    <rdf:RDF>
      <cc:Work
         rdf:about="">
        <dc:format>image/svg+xml</dc:format>
        <dc:type
           rdf:resource="http://purl.org/dc/dcmitype/StillImage" />
        <dc:title></dc:title>
      </cc:Work>
    </rdf:RDF>
  </metadata>
  <defs
     id="defs15" />
  <path
     style="fill:#ffffff"
     fill="#fff"
     transform="translate(-26.047 -558.534) rotate(2)"
     d="M48.905,574.626a1323.474,1323.474,0,0,1,168.663-12.4c15.935-.109,31.862.269,47.793.242,3.209-.006,3.127-3.876,0-4.077-28.366-1.825-57.145-1.148-85.541-.016s-56.771,3.224-84.956,6.381Q71.191,567.41,47.73,571.1c-2.814.447-1.592,3.9,1.175,3.526Z"
     data-name="Path 84"
     id="Path_84" />
  <path
     transform="rotate(2,15986.172,-1025.3828)"
     style="fill:#ffffff"
     fill="#fff"
     d="m 48.905,574.626 c 40.938127,-5.65734 82.11055,-9.39292 123.38177,-11.19678 8.76865,-0.35157 20.82873,-5.97578 7.53323,-5.05422 -28.396,1.132 -56.771,3.224 -84.956,6.381 -15.782,1.76933 -31.493333,3.884 -47.134,6.344 -2.814,0.447 -1.592,3.9 1.175,3.526 z"
     data-name="Path 84"
     id="path21" />
  <path
     transform="rotate(2,15986.172,-1025.3828)"
     id="path19"
     data-name="Path 84"
     d="m 149.60314,564.61577 c 22.62519,-1.37828 45.2876,-2.17542 67.96486,-2.38977 15.935,-0.109 31.862,0.269 47.793,0.242 3.209,-0.006 3.127,-3.876 0,-4.077 -28.366,-1.825 -57.145,-1.148 -85.541,-0.016 -12.69231,0.50598 -25.38043,1.20375 -38.04926,2.10269 -15.26593,1.26188 -8.6159,4.99211 7.8324,4.13808 z"
     fill="#fff"
     style="fill:#ffffff" />
</svg>
